<svg width="108" height="173" viewBox="0 0 108 173" fill="none" xmlns="http://www.w3.org/2000/svg">
<g clip-path="url(#clip0_23_197)">
<path d="M102.667 169.452L53.46 108.226L100.642 62.5098C101.52 61.5975 101.216 58.9619 98.8537 58.9619H75.4987C74.3175 58.9619 73.1362 59.5701 71.955 60.7527L27.3037 105.929V2.53418C27.3037 0.844727 26.46 0 24.7725 0H7.25623C5.56873 0 4.72498 0.844727 4.72498 2.53418V170.466C4.72498 172.155 5.56873 173 7.25623 173H24.7725C26.46 173 27.3037 172.155 27.3037 170.466V133.636L37.6987 123.736L74.9925 171.243C76.005 172.426 77.1862 173.034 78.5362 173.034H101.115C102.307 173.034 102.982 172.696 103.14 172.02L102.667 169.452Z" fill="white"/>
</g>
<defs>
<clipPath id="clip0_23_197">
<rect width="108" height="173" fill="white"/>
</clipPath>
</defs>
</svg>
